<svg xmlns="http://www.w3.org/2000/svg" width="14" height="15" viewBox="0 0 14 15" fill="none">
  <path d="M10.3965 4.76942C10.4231 4.74288 10.4496 4.74288 10.5027 4.74288C12.3608 4.74288 13.9003 6.28243 13.9003 8.1405C13.9003 10.0251 12.3608 11.5381 10.5027 11.5381C9.46747 11.5381 8.56498 11.1134 7.95447 10.3967V12.3875H8.80387C9.25512 12.3875 9.65328 12.7857 9.65328 13.2369C9.65328 13.7147 9.25512 14.0863 8.80387 14.0863H5.40625C4.92846 14.0863 4.55684 13.7147 4.55684 13.2369C4.55684 12.7857 4.92846 12.3875 5.40625 12.3875H6.25565V10.3967C5.6186 11.1134 4.71611 11.5381 3.70744 11.5381C1.82282 11.5381 0.309814 10.0251 0.309814 8.1405C0.309814 6.28243 1.82282 4.74288 3.70744 4.74288C3.73398 4.74288 3.76053 4.76942 3.81361 4.76942C3.73398 4.47744 3.70744 4.212 3.70744 3.89347C3.70744 2.0354 5.22044 0.49585 7.10506 0.49585C8.96314 0.49585 10.5027 2.0354 10.5027 3.89347C10.5027 4.212 10.4496 4.47744 10.3965 4.76942Z" fill="#119B15"/>
</svg>