<svg xmlns="http://www.w3.org/2000/svg" width="14" height="13" viewBox="0 0 14 13" fill="none">
  <path d="M1.54273 7.48554C0.746413 6.74231 0.295166 5.68056 0.295166 4.56571V4.43299C0.295166 2.57492 1.62236 0.98228 3.45389 0.690297C4.67491 0.477945 5.89594 0.876104 6.77189 1.72551L7.09041 2.04404L7.40894 1.72551C8.25835 0.876104 9.50591 0.477945 10.7004 0.690297C12.5319 0.98228 13.8857 2.57492 13.8857 4.43299V4.56571C13.8857 5.68056 13.4079 6.74231 12.6115 7.48554L7.8071 11.9715C7.62129 12.1573 7.35585 12.2369 7.09041 12.2369C6.79843 12.2369 6.53299 12.1573 6.34718 11.9715L1.54273 7.48554Z" fill="#E72341"/>
</svg>