<svg xmlns="http://www.w3.org/2000/svg" width="15" height="15" viewBox="0 0 15 15" fill="none">
  <path d="M7.93383 0.840946L9.68573 2.51321L13.0834 5.72503C14.4371 6.99914 14.4902 9.1492 13.2161 10.5295C11.9154 11.8832 9.76536 11.9363 8.41162 10.6622L8.19927 10.4498V12.3876H9.04868C9.49992 12.3876 9.89808 12.7857 9.89808 13.237C9.89808 13.7148 9.49992 14.0864 9.04868 14.0864H5.65105C5.17326 14.0864 4.80165 13.7148 4.80165 13.237C4.80165 12.7857 5.17326 12.3876 5.65105 12.3876H6.50046V10.4498L6.28811 10.6622C4.90782 11.9363 2.75776 11.8832 1.48366 10.5295C0.183003 9.1492 0.236091 6.99914 1.61638 5.72503L5.014 2.51321L6.7659 0.840946C7.08443 0.522419 7.58876 0.522419 7.93383 0.840946Z" fill="#121212"/>
</svg>