<svg width="26" height="26" viewBox="0 0 26 26" fill="none" xmlns="http://www.w3.org/2000/svg">
<g opacity="0.5">
<path d="M0.0013 13.0012C0.0013 13.4519 0.1573 13.8419 0.4693 14.1712C0.7813 14.5006 1.1713 14.6566 1.6393 14.6392H4.8893C5.32263 14.6392 5.70397 14.4832 6.0333 14.1712C6.36263 13.8592 6.51863 13.4692 6.5013 13.0012C6.48397 12.5332 6.32797 12.1519 6.0333 11.8572C5.73863 11.5626 5.3573 11.4066 4.8893 11.3892H1.6393C1.18863 11.3892 0.798633 11.5452 0.4693 11.8572C0.139967 12.1692 -0.0160333 12.5506 0.0013 13.0012ZM3.3293 21.0352C3.3293 21.4859 3.49397 21.8759 3.8233 22.2052C4.15263 22.5346 4.53397 22.6906 4.9673 22.6732C5.40063 22.6559 5.78197 22.4999 6.1113 22.2052L8.3993 19.9172C8.72863 19.5879 8.8933 19.2066 8.8933 18.7732C8.8933 18.3399 8.72863 17.9499 8.3993 17.6032C8.06997 17.2566 7.68863 17.1006 7.2553 17.1352C6.82197 17.1699 6.44063 17.3259 6.1113 17.6032L3.8233 19.9172C3.49397 20.2292 3.3293 20.6019 3.3293 21.0352ZM3.3293 4.96724C3.3293 5.4179 3.49397 5.79924 3.8233 6.11124L6.1113 8.42524C6.4233 8.73724 6.80463 8.89324 7.2553 8.89324C7.70597 8.89324 8.0873 8.73724 8.3993 8.42524C8.7113 8.11324 8.87597 7.72324 8.8933 7.25524C8.91063 6.78724 8.74597 6.4059 8.3993 6.11124L6.1113 3.82324C5.7993 3.4939 5.41797 3.32924 4.9673 3.32924C4.51663 3.32924 4.1353 3.4939 3.8233 3.82324C3.5113 4.15257 3.34663 4.5339 3.3293 4.96724ZM11.3893 24.3892C11.3893 24.8399 11.5453 25.2212 11.8573 25.5332C12.1693 25.8452 12.5506 26.0012 13.0013 26.0012C13.452 26.0012 13.8333 25.8452 14.1453 25.5332C14.4573 25.2212 14.622 24.8399 14.6393 24.3892V21.1392C14.6393 20.6886 14.4746 20.3072 14.1453 19.9952C13.816 19.6832 13.4346 19.5186 13.0013 19.5012C12.568 19.4839 12.1866 19.6486 11.8573 19.9952C11.528 20.3419 11.372 20.7232 11.3893 21.1392V24.3892ZM11.3893 4.88924C11.3893 5.3399 11.5453 5.72124 11.8573 6.03324C12.1693 6.34524 12.5506 6.50124 13.0013 6.50124C13.452 6.50124 13.8333 6.34524 14.1453 6.03324C14.4573 5.72124 14.622 5.3399 14.6393 4.88924V1.63924C14.6393 1.18857 14.4746 0.807238 14.1453 0.495238C13.816 0.183238 13.4346 0.0185714 13.0013 0.0012381C12.568 -0.0160952 12.1866 0.148571 11.8573 0.495238C11.528 0.841905 11.372 1.22324 11.3893 1.63924V4.88924ZM17.1093 18.7732C17.1093 19.2066 17.274 19.5879 17.6033 19.9172L19.8913 22.2052C20.2033 22.5172 20.5846 22.6732 21.0353 22.6732C21.486 22.6732 21.876 22.5172 22.2053 22.2052C22.5346 21.8932 22.6906 21.5032 22.6733 21.0352C22.656 20.5672 22.5 20.1946 22.2053 19.9172L19.8913 17.6032C19.5793 17.2912 19.198 17.1352 18.7473 17.1352C18.2966 17.1352 17.9153 17.2912 17.6033 17.6032C17.2913 17.9152 17.1266 18.3052 17.1093 18.7732ZM17.1093 7.25524C17.1093 7.7059 17.274 8.0959 17.6033 8.42524C17.9326 8.75457 18.314 8.91057 18.7473 8.89324C19.1806 8.8759 19.562 8.7199 19.8913 8.42524L22.2053 6.11124C22.5173 5.79924 22.6733 5.4179 22.6733 4.96724C22.6733 4.51657 22.5173 4.13524 22.2053 3.82324C21.8933 3.51124 21.5033 3.34657 21.0353 3.32924C20.5673 3.3119 20.186 3.47657 19.8913 3.82324L17.6033 6.11124C17.274 6.42324 17.1093 6.80457 17.1093 7.25524ZM19.5013 13.0012C19.5013 13.4519 19.6573 13.8419 19.9693 14.1712C20.2813 14.5006 20.6713 14.6566 21.1393 14.6392H24.3893C24.8226 14.6392 25.204 14.4832 25.5333 14.1712C25.8626 13.8592 26.0186 13.4692 26.0013 13.0012C25.984 12.5332 25.828 12.1519 25.5333 11.8572C25.2386 11.5626 24.8573 11.4066 24.3893 11.3892H21.1393C20.6886 11.3892 20.2986 11.5452 19.9693 11.8572C19.64 12.1692 19.484 12.5506 19.5013 13.0012Z" fill="white"/>
</g>
</svg>
